<svg width="18" height="16" viewBox="0 0 18 16" fill="none" xmlns="http://www.w3.org/2000/svg">
<path d="M15.875 0.8125H2.125C1.7106 0.8125 1.31317 0.97712 1.02015 1.27015C0.72712 1.56317 0.5625 1.9606 0.5625 2.375V13.625C0.5625 14.0394 0.72712 14.4368 1.02015 14.7299C1.31317 15.0229 1.7106 15.1875 2.125 15.1875H15.875C16.2894 15.1875 16.6868 15.0229 16.9799 14.7299C17.2729 14.4368 17.4375 14.0394 17.4375 13.625V2.375C17.4375 1.9606 17.2729 1.56317 16.9799 1.27015C16.6868 0.97712 16.2894 0.8125 15.875 0.8125ZM15.5625 13.3125H2.4375V2.6875H15.5625V13.3125ZM4.9375 4.875C4.9375 4.62636 5.03627 4.3879 5.21209 4.21209C5.3879 4.03627 5.62636 3.9375 5.875 3.9375C6.12364 3.9375 6.3621 4.03627 6.53791 4.21209C6.71373 4.3879 6.8125 4.62636 6.8125 4.875C6.8125 5.45516 7.04297 6.01156 7.4532 6.4218C7.86344 6.83203 8.41984 7.0625 9 7.0625C9.58016 7.0625 10.1366 6.83203 10.5468 6.4218C10.957 6.01156 11.1875 5.45516 11.1875 4.875C11.1875 4.62636 11.2863 4.3879 11.4621 4.21209C11.6379 4.03627 11.8764 3.9375 12.125 3.9375C12.3736 3.9375 12.6121 4.03627 12.7879 4.21209C12.9637 4.3879 13.0625 4.62636 13.0625 4.875C13.0625 5.95244 12.6345 6.98575 11.8726 7.74762C11.1108 8.50949 10.0774 8.9375 9 8.9375C7.92256 8.9375 6.88925 8.50949 6.12738 7.74762C5.36551 6.98575 4.9375 5.95244 4.9375 4.875Z" fill="#3625FF"/>
</svg>
