<svg width="20" height="20" viewBox="0 0 20 20" fill="none" xmlns="http://www.w3.org/2000/svg">
<path d="M16.875 2.8125H3.125C2.7106 2.8125 2.31317 2.97712 2.02015 3.27015C1.72712 3.56317 1.5625 3.9606 1.5625 4.375V15.625C1.5625 16.0394 1.72712 16.4368 2.02015 16.7299C2.31317 17.0229 2.7106 17.1875 3.125 17.1875H16.875C17.2894 17.1875 17.6868 17.0229 17.9799 16.7299C18.2729 16.4368 18.4375 16.0394 18.4375 15.625V4.375C18.4375 3.9606 18.2729 3.56317 17.9799 3.27015C17.6868 2.97712 17.2894 2.8125 16.875 2.8125ZM16.5625 15.3125H3.4375V4.6875H16.5625V15.3125ZM5.9375 6.875C5.9375 6.62636 6.03627 6.3879 6.21209 6.21209C6.3879 6.03627 6.62636 5.9375 6.875 5.9375C7.12364 5.9375 7.3621 6.03627 7.53791 6.21209C7.71373 6.3879 7.8125 6.62636 7.8125 6.875C7.8125 7.45516 8.04297 8.01156 8.4532 8.4218C8.86344 8.83203 9.41984 9.0625 10 9.0625C10.5802 9.0625 11.1366 8.83203 11.5468 8.4218C11.957 8.01156 12.1875 7.45516 12.1875 6.875C12.1875 6.62636 12.2863 6.3879 12.4621 6.21209C12.6379 6.03627 12.8764 5.9375 13.125 5.9375C13.3736 5.9375 13.6121 6.03627 13.7879 6.21209C13.9637 6.3879 14.0625 6.62636 14.0625 6.875C14.0625 7.95244 13.6345 8.98575 12.8726 9.74762C12.1108 10.5095 11.0774 10.9375 10 10.9375C8.92256 10.9375 7.88925 10.5095 7.12738 9.74762C6.36551 8.98575 5.9375 7.95244 5.9375 6.875Z" fill="#3625FF"/>
</svg>
