<svg width="16" height="16" viewBox="0 0 16 16" fill="none" xmlns="http://www.w3.org/2000/svg">
<path d="M15.0539 12.232C14.9906 12.3377 14.9071 12.4298 14.8082 12.5032C14.7092 12.5766 14.5968 12.6297 14.4773 12.6596C14.3578 12.6895 14.2336 12.6956 14.1117 12.6774C13.9899 12.6593 13.8728 12.6173 13.7672 12.5539L8.93753 9.65547V14.875C8.93753 15.1236 8.83875 15.3621 8.66294 15.5379C8.48712 15.7137 8.24867 15.8125 8.00003 15.8125C7.75139 15.8125 7.51293 15.7137 7.33711 15.5379C7.1613 15.3621 7.06253 15.1236 7.06253 14.875V9.65547L2.23284 12.5539C2.12727 12.6173 2.01025 12.6592 1.88848 12.6773C1.7667 12.6955 1.64254 12.6894 1.52309 12.6596C1.40365 12.6297 1.29125 12.5766 1.19232 12.5033C1.09339 12.43 1.00986 12.338 0.946511 12.2324C0.818564 12.0192 0.780556 11.7639 0.840846 11.5227C0.901136 11.2814 1.05479 11.074 1.268 10.9461L6.17815 8L1.268 5.05391C1.05479 4.92596 0.901136 4.71856 0.840846 4.47732C0.780556 4.23609 0.818564 3.98079 0.946511 3.76758C1.07446 3.55437 1.28186 3.40072 1.52309 3.34043C1.76433 3.28014 2.01963 3.31815 2.23284 3.44609L7.06253 6.34453V1.125C7.06253 0.87636 7.1613 0.637903 7.33711 0.462087C7.51293 0.286272 7.75139 0.1875 8.00003 0.1875C8.24867 0.1875 8.48712 0.286272 8.66294 0.462087C8.83875 0.637903 8.93753 0.87636 8.93753 1.125V6.34453L13.7672 3.44609C13.8728 3.38274 13.9898 3.3408 14.1116 3.32267C14.2334 3.30454 14.3575 3.31058 14.477 3.34043C14.5964 3.37028 14.7088 3.42337 14.8077 3.49666C14.9067 3.56995 14.9902 3.66201 15.0535 3.76758C15.1169 3.87315 15.1588 3.99016 15.177 4.11194C15.1951 4.23372 15.1891 4.35788 15.1592 4.47732C15.1294 4.59677 15.0763 4.70917 15.003 4.8081C14.9297 4.90703 14.8376 4.99055 14.7321 5.05391L9.8219 8L14.7321 10.9461C14.9452 11.074 15.0989 11.2813 15.1593 11.5224C15.2196 11.7636 15.1817 12.0188 15.0539 12.232Z" fill="#2E3438"/>
</svg>
