<svg width="28" height="28" viewBox="0 0 28 28" fill="none" xmlns="http://www.w3.org/2000/svg">
<rect width="28" height="28" rx="4" fill="white"/>
<path d="M22.1633 20.8367L18.4531 17.125C19.5656 15.6754 20.0849 13.8569 19.9059 12.0384C19.7268 10.2199 18.8628 8.53763 17.489 7.3328C16.1152 6.12798 14.3345 5.49082 12.5082 5.55059C10.6819 5.61036 8.94675 6.36258 7.65467 7.65466C6.3626 8.94673 5.61038 10.6819 5.55061 12.5082C5.49084 14.3345 6.12799 16.1151 7.33282 17.4889C8.53765 18.8627 10.2199 19.7268 12.0384 19.9059C13.8569 20.0849 15.6754 19.5655 17.125 18.4531L20.8383 22.1672C20.9255 22.2544 21.029 22.3236 21.143 22.3708C21.2569 22.418 21.379 22.4423 21.5024 22.4423C21.6257 22.4423 21.7478 22.418 21.8617 22.3708C21.9757 22.3236 22.0792 22.2544 22.1664 22.1672C22.2536 22.08 22.3228 21.9765 22.37 21.8625C22.4172 21.7486 22.4415 21.6265 22.4415 21.5031C22.4415 21.3798 22.4172 21.2577 22.37 21.1437C22.3228 21.0298 22.2536 20.9263 22.1664 20.8391L22.1633 20.8367ZM7.43752 12.75C7.43752 11.6993 7.74909 10.6722 8.33283 9.79853C8.91658 8.9249 9.74628 8.24398 10.717 7.84189C11.6877 7.4398 12.7559 7.33459 13.7864 7.53958C14.817 7.74456 15.7636 8.25053 16.5065 8.9935C17.2495 9.73646 17.7555 10.6831 17.9604 11.7136C18.1654 12.7441 18.0602 13.8123 17.6581 14.783C17.256 15.7537 16.5751 16.5834 15.7015 17.1672C14.8278 17.7509 13.8007 18.0625 12.75 18.0625C11.3415 18.0611 9.99108 17.5009 8.99511 16.5049C7.99914 15.5089 7.43896 14.1585 7.43752 12.75Z" fill="#5C6970"/>
</svg>
