<svg width="13" height="14" viewBox="0 0 13 14" fill="none" xmlns="http://www.w3.org/2000/svg">
<path d="M12.8794 10.7919C12.8221 10.8866 12.7466 10.9691 12.6571 11.0349C12.5676 11.1006 12.4659 11.1482 12.3578 11.175C12.2498 11.2018 12.1374 11.2072 12.0273 11.191C11.9171 11.1747 11.8112 11.1371 11.7157 11.0803L7.3478 8.4833V13.16C7.3478 13.3828 7.25847 13.5964 7.09947 13.754C6.94046 13.9115 6.72481 14 6.49994 14C6.27507 14 6.05942 13.9115 5.90041 13.754C5.74141 13.5964 5.65208 13.3828 5.65208 13.16V8.4833L1.2842 11.0803C1.18872 11.1371 1.0829 11.1746 0.972762 11.1909C0.862627 11.2071 0.750342 11.2017 0.642317 11.175C0.534291 11.1482 0.432641 11.1007 0.343171 11.035C0.2537 10.9693 0.178161 10.8868 0.120866 10.7923C0.00515337 10.6012 -0.0292211 10.3725 0.0253041 10.1563C0.0798293 9.94017 0.218788 9.75434 0.411611 9.6397L4.85227 7L0.411611 4.3603C0.218788 4.24566 0.0798293 4.05983 0.0253041 3.84368C-0.0292211 3.62754 0.00515337 3.39879 0.120866 3.20775C0.236578 3.01671 0.42415 2.87904 0.642317 2.82502C0.860484 2.771 1.09138 2.80506 1.2842 2.9197L5.65208 5.5167V0.84C5.65208 0.617218 5.74141 0.403561 5.90041 0.24603C6.05942 0.0884998 6.27507 0 6.49994 0C6.72481 0 6.94046 0.0884998 7.09947 0.24603C7.25847 0.403561 7.3478 0.617218 7.3478 0.84V5.5167L11.7157 2.9197C11.8112 2.86294 11.917 2.82536 12.0271 2.80911C12.1373 2.79287 12.2495 2.79828 12.3576 2.82502C12.4656 2.85177 12.5672 2.89934 12.6567 2.96501C12.7462 3.03067 12.8217 3.11316 12.879 3.20775C12.9363 3.30234 12.9742 3.40719 12.9906 3.5163C13.007 3.62541 13.0016 3.73666 12.9746 3.84368C12.9476 3.95071 12.8996 4.05141 12.8333 4.14006C12.767 4.2287 12.6837 4.30354 12.5883 4.3603L8.14761 7L12.5883 9.6397C12.7811 9.75427 12.92 9.94002 12.9746 10.1561C13.0292 10.3722 12.9949 10.6009 12.8794 10.7919Z" fill="#2E3438"/>
</svg>
