<svg width="14" height="15" viewBox="0 0 14 15" fill="none" xmlns="http://www.w3.org/2000/svg">
<path d="M12.5 3H10.25V2.25C10.25 1.78587 10.0656 1.34075 9.73744 1.01256C9.40925 0.684374 8.96413 0.5 8.5 0.5H5.5C5.03587 0.5 4.59075 0.684374 4.26256 1.01256C3.93437 1.34075 3.75 1.78587 3.75 2.25V3H1.5C1.30109 3 1.11032 3.07902 0.96967 3.21967C0.829018 3.36032 0.75 3.55109 0.75 3.75C0.75 3.94891 0.829018 4.13968 0.96967 4.28033C1.11032 4.42098 1.30109 4.5 1.5 4.5H1.75V13C1.75 13.3315 1.8817 13.6495 2.11612 13.8839C2.35054 14.1183 2.66848 14.25 3 14.25H11C11.3315 14.25 11.6495 14.1183 11.8839 13.8839C12.1183 13.6495 12.25 13.3315 12.25 13V4.5H12.5C12.6989 4.5 12.8897 4.42098 13.0303 4.28033C13.171 4.13968 13.25 3.94891 13.25 3.75C13.25 3.55109 13.171 3.36032 13.0303 3.21967C12.8897 3.07902 12.6989 3 12.5 3ZM5.25 2.25C5.25 2.1837 5.27634 2.12011 5.32322 2.07322C5.37011 2.02634 5.4337 2 5.5 2H8.5C8.5663 2 8.62989 2.02634 8.67678 2.07322C8.72366 2.12011 8.75 2.1837 8.75 2.25V3H5.25V2.25ZM10.75 12.75H3.25V4.5H10.75V12.75ZM6.25 6.5V10.5C6.25 10.6989 6.17098 10.8897 6.03033 11.0303C5.88968 11.171 5.69891 11.25 5.5 11.25C5.30109 11.25 5.11032 11.171 4.96967 11.0303C4.82902 10.8897 4.75 10.6989 4.75 10.5V6.5C4.75 6.30109 4.82902 6.11032 4.96967 5.96967C5.11032 5.82902 5.30109 5.75 5.5 5.75C5.69891 5.75 5.88968 5.82902 6.03033 5.96967C6.17098 6.11032 6.25 6.30109 6.25 6.5ZM9.25 6.5V10.5C9.25 10.6989 9.17098 10.8897 9.03033 11.0303C8.88968 11.171 8.69891 11.25 8.5 11.25C8.30109 11.25 8.11032 11.171 7.96967 11.0303C7.82902 10.8897 7.75 10.6989 7.75 10.5V6.5C7.75 6.30109 7.82902 6.11032 7.96967 5.96967C8.11032 5.82902 8.30109 5.75 8.5 5.75C8.69891 5.75 8.88968 5.82902 9.03033 5.96967C9.17098 6.11032 9.25 6.30109 9.25 6.5Z" fill="white"/>
</svg>
